<svg width="148" height="32" viewBox="0 0 148 32" fill="none" xmlns="http://www.w3.org/2000/svg">
<g clip-path="url(#clip0_1_3877)">
<path d="M58.7596 12.368C58.6288 12.4458 58.4732 12.4728 58.3232 12.4438C58.1731 12.4148 58.0396 12.3318 57.9488 12.2112C57.5021 11.5822 56.9029 11.0723 56.2051 10.7274C55.5073 10.3825 54.7329 10.2135 53.9519 10.2358C50.9066 10.2358 49.0376 12.5995 49.0376 15.9752C49.0376 19.351 50.9409 21.7595 53.9861 21.7595C54.7776 21.7781 55.5608 21.5981 56.2615 21.2368C56.9623 20.8754 57.5574 20.3446 57.9906 19.6945C58.0772 19.5723 58.2074 19.4864 58.3555 19.4539C58.5035 19.4214 58.6586 19.4446 58.79 19.519L60.2365 20.3405C60.3155 20.3798 60.3849 20.4354 60.4401 20.5033C60.4952 20.5713 60.5348 20.6501 60.5561 20.7345C60.5774 20.8188 60.58 20.9066 60.5636 20.992C60.5472 21.0774 60.5122 21.1583 60.4611 21.2293C59.7539 22.2691 58.7892 23.1157 57.6574 23.6898C56.5255 24.2639 55.2636 24.5467 53.9899 24.5116C49.1213 24.5116 45.821 21.0463 45.821 15.9939C45.821 10.9415 49.1213 7.52097 53.9176 7.52097C55.1701 7.48686 56.4119 7.75423 57.5347 8.29973C58.6575 8.84524 59.6269 9.65226 60.3583 10.6502C60.4086 10.7175 60.4442 10.7941 60.4631 10.8754C60.4819 10.9567 60.4835 11.0409 60.4678 11.1228C60.4521 11.2047 60.4194 11.2826 60.3718 11.3516C60.3241 11.4207 60.2626 11.4793 60.1908 11.5241L58.7596 12.368Z" fill="white"/>
<path d="M69.3896 23.5994V22.9123C68.6283 23.8757 67.5662 24.4732 65.8571 24.4732C63.3295 24.4732 61.5747 23.1176 61.5747 20.7389C61.5747 17.7777 64.266 17.2699 65.9256 17.0421C67.7071 16.7882 69.2259 16.6687 69.2259 15.526C69.2259 14.514 68.0345 14.2414 67.0257 14.2414C65.8678 14.2603 64.7302 14.5428 63.7026 15.0667C63.6313 15.1051 63.5527 15.129 63.4718 15.1368C63.3908 15.1446 63.309 15.1362 63.2314 15.1121C63.1539 15.088 63.0821 15.0487 63.0204 14.9966C62.9588 14.9445 62.9085 14.8807 62.8727 14.809L62.3512 13.741C62.2815 13.6027 62.2687 13.4433 62.3155 13.2959C62.3623 13.1486 62.465 13.0245 62.6025 12.9494C64.0417 12.1978 65.6465 11.8029 67.2769 11.7993C70.1776 11.7993 72.2255 12.9681 72.2255 15.7949V23.5994C72.2255 23.7578 72.1613 23.9098 72.0471 24.0218C71.9329 24.1339 71.778 24.1968 71.6164 24.1968H70.0253C69.9431 24.2004 69.861 24.1875 69.784 24.1591C69.707 24.1306 69.6367 24.0872 69.5773 24.0313C69.5179 23.9755 69.4706 23.9084 69.4384 23.8342C69.4061 23.76 69.3895 23.6801 69.3896 23.5994ZM69.2259 18.2034C68.6663 18.6179 67.6348 18.7561 66.5347 18.9503C65.4346 19.1444 64.521 19.432 64.521 20.6045C64.521 21.6837 65.3166 22.1878 66.4661 22.1878C67.8936 22.1878 69.2259 21.4074 69.2259 19.5925V18.2034Z" fill="white"/>
<path d="M74.8508 21.1049C74.9535 20.9876 75.0985 20.9139 75.2554 20.8993C75.4122 20.8846 75.5688 20.9302 75.6921 21.0265C76.7098 21.7804 77.9572 22.1752 79.2322 22.1467C80.5455 22.1467 81.5162 21.7322 81.5162 20.724C81.5162 19.8054 80.6254 19.6224 78.4709 19.2527C76.187 18.8793 74.002 18.1325 74.002 15.5783C74.002 12.9158 76.343 11.7918 79.0114 11.7918C80.6848 11.7675 82.3183 12.2933 83.6516 13.2855C83.7167 13.3355 83.7707 13.3979 83.8103 13.469C83.85 13.5401 83.8745 13.6184 83.8823 13.6991C83.8902 13.7798 83.8812 13.8612 83.8559 13.9384C83.8306 14.0156 83.7896 14.0869 83.7354 14.1481L82.9741 15.0256C82.8731 15.1433 82.7301 15.2186 82.5743 15.2359C82.4185 15.2533 82.2619 15.2114 82.1366 15.119C81.1985 14.4459 80.0632 14.0895 78.901 14.1032C77.7781 14.1032 76.796 14.4244 76.796 15.2945C76.796 16.2616 78.174 16.4446 79.5558 16.6761C82.5059 17.1802 84.3787 18.0055 84.3787 20.4103C84.3787 22.9346 82.3193 24.4955 79.0495 24.4955C77.2624 24.5491 75.5122 23.9891 74.101 22.9122C74.0377 22.8614 73.9853 22.7987 73.947 22.7278C73.9086 22.6569 73.885 22.5792 73.8776 22.4992C73.8701 22.4193 73.879 22.3387 73.9036 22.2622C73.9282 22.1856 73.9682 22.1146 74.021 22.0534L74.8508 21.1049Z" fill="white"/>
<path d="M86.1927 23.594V8.39581C86.1927 8.23735 86.2568 8.08539 86.3711 7.97334C86.4853 7.86129 86.6402 7.79834 86.8017 7.79834H88.5565C88.7181 7.79834 88.873 7.86129 88.9872 7.97334C89.1014 8.08539 89.1656 8.23735 89.1656 8.39581V13.5863C89.6025 13.0144 90.1725 12.5533 90.8281 12.2415C91.4837 11.9297 92.2058 11.7762 92.9341 11.7939C95.5302 11.7939 97.0528 13.6088 97.0528 16.2003V23.594C97.0528 23.7525 96.9886 23.9045 96.8744 24.0165C96.7602 24.1286 96.6053 24.1915 96.4437 24.1915H94.6889C94.5274 24.1915 94.3725 24.1286 94.2583 24.0165C94.144 23.9045 94.0799 23.7525 94.0799 23.594V16.8725C94.0799 15.5842 93.6573 14.4153 91.9748 14.4153C90.3799 14.4153 89.1656 15.5169 89.1656 17.3542V23.5978C89.1656 23.7562 89.1014 23.9082 88.9872 24.0203C88.873 24.1323 88.7181 24.1953 88.5565 24.1953H86.8017C86.7213 24.1958 86.6415 24.1805 86.5672 24.1504C86.4928 24.1204 86.4253 24.076 86.3686 24.02C86.3119 23.9641 86.2671 23.8976 86.2369 23.8244C86.2067 23.7513 86.1917 23.673 86.1927 23.594Z" fill="white"/>
<path d="M116.363 23.7904L115.099 20.1309H108.711L107.444 23.7904C107.403 23.9083 107.326 24.0106 107.223 24.0829C107.119 24.1553 106.996 24.194 106.869 24.1937H104.81C104.712 24.1936 104.615 24.1703 104.528 24.1258C104.442 24.0813 104.367 24.0169 104.311 23.9381C104.255 23.8593 104.219 23.7685 104.207 23.6732C104.194 23.5779 104.205 23.4811 104.239 23.3909L109.99 8.18888C110.036 8.07756 110.115 7.98238 110.217 7.91577C110.319 7.84916 110.439 7.8142 110.561 7.81546H113.374C113.499 7.81594 113.621 7.8537 113.724 7.92373C113.827 7.99375 113.905 8.09274 113.949 8.20755L119.678 23.4058C119.712 23.4963 119.723 23.5935 119.71 23.6891C119.697 23.7846 119.661 23.8757 119.605 23.9546C119.548 24.0335 119.473 24.0978 119.386 24.142C119.298 24.1862 119.202 24.2091 119.103 24.2087H116.93C116.803 24.2058 116.679 24.164 116.578 24.0889C116.476 24.0139 116.401 23.9095 116.363 23.7904ZM111.939 10.463L109.48 17.5804H114.303L111.939 10.463Z" fill="white"/>
<path d="M124.088 12.6767V13.6178C124.52 13.0305 125.094 12.5574 125.758 12.2407C126.422 11.924 127.156 11.7736 127.894 11.8029C131.263 11.8029 133.44 14.5364 133.44 18.1175C133.44 21.6986 131.263 24.4657 127.894 24.4657C127.154 24.4931 126.419 24.3396 125.754 24.0188C125.09 23.6981 124.517 23.2203 124.088 22.6284V27.5837C124.088 27.7422 124.024 27.8942 123.909 28.0062C123.795 28.1182 123.64 28.1812 123.479 28.1812H121.724C121.562 28.1812 121.407 28.1182 121.293 28.0062C121.179 27.8942 121.115 27.7422 121.115 27.5837V12.6469C121.115 12.4884 121.179 12.3364 121.293 12.2244C121.407 12.1123 121.562 12.0494 121.724 12.0494H123.479C123.561 12.0493 123.643 12.0657 123.719 12.0976C123.795 12.1294 123.863 12.1761 123.92 12.2348C123.977 12.2935 124.022 12.3629 124.05 12.4389C124.079 12.5149 124.092 12.5958 124.088 12.6767ZM127.27 21.9301C129.329 21.9301 130.315 20.2049 130.315 18.1175C130.315 16.0301 129.31 14.3497 127.27 14.3497C125.23 14.3497 124.088 16.0263 124.088 18.1175C124.088 20.2087 125.173 21.9301 127.27 21.9301Z" fill="white"/>
<path d="M138.244 12.6765V13.6175C138.677 13.0307 139.251 12.558 139.915 12.2414C140.579 11.9248 141.313 11.7741 142.051 11.8027C145.423 11.8027 147.601 14.5361 147.601 18.1172C147.601 21.6983 145.423 24.4654 142.051 24.4654C141.311 24.4922 140.576 24.3383 139.911 24.0177C139.247 23.697 138.674 23.2196 138.244 22.6282V27.5835C138.244 27.7419 138.18 27.8939 138.066 28.0059C137.952 28.118 137.797 28.1809 137.635 28.1809H135.88C135.719 28.1809 135.564 28.118 135.45 28.0059C135.336 27.8939 135.271 27.7419 135.271 27.5835V12.6466C135.271 12.4882 135.336 12.3362 135.45 12.2241C135.564 12.1121 135.719 12.0491 135.88 12.0491H137.635C137.718 12.0485 137.8 12.0645 137.876 12.0962C137.952 12.1279 138.021 12.1746 138.078 12.2334C138.135 12.2922 138.18 12.3618 138.208 12.4381C138.237 12.5143 138.249 12.5954 138.244 12.6765ZM141.43 21.9299C143.49 21.9299 144.476 20.2047 144.476 18.1172C144.476 16.0298 143.471 14.3494 141.43 14.3494C139.39 14.3494 138.244 16.0261 138.244 18.1172C138.244 20.2084 139.344 21.9299 141.43 21.9299Z" fill="white"/>
<path fill-rule="evenodd" clip-rule="evenodd" d="M27.3911 0.546667C25.6618 0 24.056 0 20.8436 0H11.1569C7.944 0 6.33778 0 4.60889 0.546667C2.72089 1.23378 1.23378 2.72089 0.546667 4.60889C0 6.33778 0 7.94444 0 11.1569V20.8431C0 24.056 0 25.6618 0.546667 27.3911C1.23378 29.2791 2.72089 30.7662 4.60889 31.4533C6.33778 32 7.944 32 11.1569 32H20.8436C24.056 32 25.6618 32 27.3911 31.4533C29.2791 30.7662 30.7662 29.2791 31.4533 27.3911C32 25.6618 32 24.056 32 20.8431V11.1569C32 7.94444 32 6.33778 31.4533 4.60889C30.7662 2.72089 29.2791 1.23378 27.3911 0.546667ZM20.6565 12.2971C19.6876 11.4372 18.2047 10.8107 16.6576 10.8107C15.4468 10.8107 14.2351 11.244 14.2351 12.3396C14.2351 13.3776 15.3413 13.7764 16.6911 14.2631C16.8035 14.3036 16.9176 14.3448 17.0329 14.3869C19.6574 15.281 21.8199 16.377 21.8199 18.9723C21.8199 21.7932 19.6499 23.7204 16.1043 23.9392L15.7822 25.4726C15.7237 25.7539 15.4743 25.9546 15.1872 25.9524L12.9561 25.9356C12.5733 25.9324 12.2902 25.5798 12.3695 25.2059L12.7093 23.6109C11.3137 23.2308 10.0909 22.5521 9.12512 21.6146C8.88101 21.378 8.8788 20.9855 9.12114 20.7467L10.3599 19.5248C10.5947 19.2931 10.9704 19.2949 11.2052 19.5266C12.4023 20.7068 13.9449 21.1928 15.4176 21.1928C17.0329 21.1928 18.1285 20.5296 18.1285 19.4047C18.1285 18.4136 17.2318 18.0827 15.5233 17.4522C15.3433 17.3858 15.1543 17.316 14.9564 17.2418C12.7647 16.4634 10.6882 15.3386 10.6882 12.714C10.6882 9.68231 13.198 8.20479 16.1592 8.05681L16.4848 6.52568C16.5442 6.24701 16.7905 6.04764 17.0754 6.04764H19.303C19.6867 6.04764 19.9724 6.4003 19.894 6.77555L19.5325 8.49719C20.8107 8.91586 21.8491 9.56978 22.6227 10.2348C22.8854 10.4603 22.8943 10.8643 22.651 11.1111L21.4982 12.2803C21.2683 12.5133 20.9015 12.5146 20.6565 12.2971Z" fill="white"/>
</g>
<defs>
<clipPath id="clip0_1_3877">
<rect width="148" height="32" fill="white"/>
</clipPath>
</defs>
</svg>
