<svg width="46" height="46" viewBox="0 0 46 46" fill="none" xmlns="http://www.w3.org/2000/svg">
<g clip-path="url(#clip0_1_3890)">
<g clip-path="url(#clip1_1_3890)">
<path fill-rule="evenodd" clip-rule="evenodd" d="M22.6444 45.5105C35.0767 45.5105 45.155 35.4321 45.155 22.9999C45.155 10.5677 35.0767 0.489258 22.6444 0.489258C10.2122 0.489258 0.133789 10.5677 0.133789 22.9999C0.133789 35.4321 10.2122 45.5105 22.6444 45.5105ZM14.4499 15.8561C13.8901 15.8561 13.4364 16.3098 13.4364 16.8695C13.4364 17.4292 13.8901 17.8829 14.4499 17.8829H30.43C30.9897 17.8829 31.4434 17.4292 31.4434 16.8695C31.4434 16.3098 30.9897 15.8561 30.43 15.8561H14.4499ZM13.4364 22.8698C13.4364 22.3101 13.8901 21.8564 14.4499 21.8564H30.43C30.9897 21.8564 31.4434 22.3101 31.4434 22.8698C31.4434 23.4295 30.9897 23.8832 30.43 23.8832H14.4499C13.8901 23.8832 13.4364 23.4295 13.4364 22.8698ZM14.4499 27.8605C13.8901 27.8605 13.4364 28.3143 13.4364 28.874C13.4364 29.4337 13.8901 29.8875 14.4499 29.8875H30.43C30.9897 29.8875 31.4434 29.4337 31.4434 28.874C31.4434 28.3143 30.9897 27.8605 30.43 27.8605H14.4499Z" fill="white"/>
</g>
</g>
<defs>
<clipPath id="clip0_1_3890">
<rect width="46" height="46" fill="white"/>
</clipPath>
<clipPath id="clip1_1_3890">
<rect width="46" height="45.0213" fill="white" transform="translate(0 0.489258)"/>
</clipPath>
</defs>
</svg>
