<svg width="260" height="69" viewBox="0 0 260 69" fill="none" xmlns="http://www.w3.org/2000/svg">
<g clip-path="url(#clip0_1_3707)">
<path d="M6.91583 16.9827C14.7834 16.9827 19.0856 10.4648 19.0856 4.8129C19.0856 4.62777 19.0818 4.44347 19.0735 4.26001C19.9087 3.65625 20.6346 2.90281 21.2071 2.04512C20.4407 2.38578 19.616 2.61511 18.7508 2.71851C19.6339 2.18897 20.3119 1.3513 20.6317 0.352687C19.8053 0.842613 18.8901 1.1987 17.9156 1.39091C17.1351 0.559498 16.0239 0.0395508 14.7935 0.0395508C12.4314 0.0395508 10.5159 1.95506 10.5159 4.3163C10.5159 4.65195 10.5534 4.97843 10.6268 5.29156C7.07179 5.11269 3.91958 3.41066 1.81019 0.822599C1.44285 1.45471 1.23103 2.18897 1.23103 2.97244C1.23103 4.4564 1.98614 5.76648 3.13445 6.53285C2.43271 6.51117 1.7735 6.31853 1.19726 5.99789C1.19663 6.01584 1.19663 6.03334 1.19663 6.05252C1.19663 8.12397 2.67099 9.85351 4.6282 10.2455C4.26878 10.3434 3.8906 10.396 3.50033 10.396C3.22513 10.396 2.95703 10.3689 2.69643 10.3188C3.24098 12.0184 4.82 13.2551 6.69215 13.2897C5.2282 14.4371 3.38399 15.1205 1.37967 15.1205C1.03485 15.1205 0.694193 15.1009 0.359375 15.0613C2.25237 16.2747 4.49997 16.9827 6.91583 16.9827Z" fill="#005620"/>
</g>
<g clip-path="url(#clip1_1_3707)">
<path fill-rule="evenodd" clip-rule="evenodd" d="M48.7872 0.602863C49.8525 0.555338 50.1931 0.543457 52.902 0.543457C55.6109 0.543457 55.9515 0.555338 57.0208 0.598903C58.0862 0.646427 58.8109 0.816724 59.4446 1.06227C60.0981 1.31969 60.6565 1.66029 61.2109 2.21474C61.7654 2.7692 62.1099 3.32366 62.3634 3.98108C62.6089 4.6187 62.7792 5.34346 62.8268 6.40484C62.8743 7.47019 62.8862 7.80682 62.8862 10.5197C62.8862 13.2326 62.8743 13.5692 62.8268 14.6345C62.7792 15.6999 62.6089 16.4246 62.3634 17.0583C62.106 17.7118 61.7654 18.2702 61.2109 18.8246C60.6565 19.3791 60.102 19.7237 59.4446 19.9771C58.807 20.2227 58.0822 20.393 57.0208 20.4405C55.9555 20.488 55.6189 20.4999 52.906 20.4999C50.1931 20.4999 49.8565 20.488 48.7911 20.4405C47.7258 20.393 47.001 20.2227 46.3674 19.9771C45.7139 19.7197 45.1555 19.3791 44.601 18.8246C44.0466 18.2702 43.702 17.7157 43.4486 17.0583C43.203 16.4207 43.0327 15.6959 42.9852 14.6345C42.9377 13.5692 42.9258 13.2286 42.9258 10.5197C42.9258 7.81078 42.9377 7.47019 42.9852 6.4088C43.0327 5.34346 43.203 4.6187 43.4486 3.98504C43.706 3.33158 44.0466 2.77316 44.601 2.2187C45.1555 1.66425 45.7099 1.31969 46.3674 1.06623C47.001 0.820685 47.7258 0.650388 48.7872 0.602863ZM56.9326 2.40071C55.8791 2.35319 55.5663 2.34131 52.9009 2.34131C50.2356 2.34131 49.9227 2.34923 48.8693 2.40071C47.895 2.44428 47.3683 2.61062 47.0158 2.74527C46.5485 2.92349 46.2158 3.14131 45.8673 3.48982C45.5188 3.83834 45.3049 4.17101 45.1227 4.63834C44.9841 4.99081 44.8217 5.51755 44.7782 6.4918C44.7306 7.54527 44.7188 7.85814 44.7188 10.5235C44.7188 13.1888 44.7306 13.5017 44.7782 14.5552C44.8217 15.5294 44.9881 16.0562 45.1227 16.4086C45.3009 16.876 45.5188 17.2086 45.8673 17.5571C46.2158 17.9057 46.5485 18.1195 47.0158 18.3017C47.3683 18.4403 47.895 18.6027 48.8693 18.6463C49.9227 18.6938 50.2356 18.7057 52.9009 18.7057C55.5663 18.7057 55.8791 18.6938 56.9326 18.6463C57.9069 18.6027 58.4336 18.4364 58.7861 18.3017C59.2534 18.1235 59.5861 17.9057 59.9346 17.5571C60.2831 17.2086 60.497 16.876 60.6791 16.4086C60.8178 16.0562 60.9801 15.5294 61.0237 14.5552C61.0712 13.5017 61.0831 13.1888 61.0831 10.5235C61.0831 7.85814 61.0712 7.54527 61.0237 6.4918C60.9801 5.51755 60.8138 4.99081 60.6791 4.63834C60.5009 4.17101 60.2831 3.83834 59.9346 3.48982C59.5861 3.14131 59.2534 2.92745 58.7861 2.74527C58.4336 2.60666 57.9069 2.44428 56.9326 2.40071Z" fill="#005620"/>
<path fill-rule="evenodd" clip-rule="evenodd" d="M47.7773 10.5198C47.7773 7.68809 50.0744 5.39502 52.9021 5.39502C55.7298 5.39502 58.0268 7.69205 58.0268 10.5198C58.0268 13.3475 55.7298 15.6445 52.9021 15.6445C50.0744 15.6445 47.7773 13.3515 47.7773 10.5198ZM49.5742 10.5196C49.5742 12.3572 51.0633 13.8463 52.901 13.8463C54.7386 13.8463 56.2277 12.3572 56.2277 10.5196C56.2277 8.68198 54.7386 7.19287 52.901 7.19287C51.0633 7.19287 49.5742 8.68198 49.5742 10.5196Z" fill="#005620"/>
<path d="M58.2274 6.38915C58.8879 6.38915 59.4233 5.85366 59.4233 5.19311C59.4233 4.53256 58.8879 3.99707 58.2274 3.99707C57.5668 3.99707 57.0312 4.53256 57.0312 5.19311C57.0312 5.85366 57.5668 6.38915 58.2274 6.38915Z" fill="#005620"/>
</g>
<g clip-path="url(#clip2_1_3707)">
<path d="M87.349 0.563965L83.2539 4.6591V19.4016H88.1681V23.4967L92.2632 19.4016H95.5393L102.911 12.0304V0.563965H87.349ZM101.272 11.2113L97.9964 14.4874H94.7203L91.8537 17.354V14.4874H88.1681V2.20202H101.272V11.2113Z" fill="#005620"/>
<path d="M98.8138 5.06885H97.1758V9.98301H98.8138V5.06885Z" fill="#005620"/>
<path d="M94.3138 5.06885H92.6758V9.98301H94.3138V5.06885Z" fill="#005620"/>
</g>
<g clip-path="url(#clip3_1_3707)">
<path fill-rule="evenodd" clip-rule="evenodd" d="M13.2177 46.5635C13.547 49.3955 15.1276 51.0839 17.8758 51.2635V54.4487C16.2832 54.6044 14.8881 54.0835 13.2656 53.1016V59.0589C13.2656 66.6268 5.01513 68.9918 1.69818 63.5673C-0.43329 60.0767 0.871936 53.9518 7.7094 53.7063V57.0652C7.18851 57.149 6.63169 57.2807 6.12277 57.4543C4.60201 57.9692 3.73984 58.9332 3.97933 60.6336C4.44035 63.8906 10.4156 64.8546 9.9187 58.4901V46.5695H13.2177V46.5635Z" fill="#005620"/>
</g>
<g clip-path="url(#clip4_1_3707)">
<path fill-rule="evenodd" clip-rule="evenodd" d="M44.3062 46.5435C43.3669 46.5435 42.6055 47.3049 42.6055 48.2442V64.7991C42.6055 65.7384 43.3669 66.4999 44.3062 66.4999H60.8611C61.8004 66.4999 62.5619 65.7384 62.5619 64.7991V48.2442C62.5619 47.3049 61.8004 46.5435 60.8611 46.5435H44.3062ZM49.5797 51.9229C49.5797 52.7193 48.934 53.365 48.1375 53.365C47.341 53.365 46.6954 52.7193 46.6954 51.9229C46.6954 51.1264 47.341 50.4807 48.1375 50.4807C48.934 50.4807 49.5797 51.1264 49.5797 51.9229ZM46.8515 54.1056V61.8231H49.424V54.1056H46.8515ZM53.3997 61.8231V57.1751C53.5302 56.5324 54.0094 55.9761 54.7667 55.9761C55.7022 55.9761 56.053 56.6777 56.053 57.7301V61.8227H58.6255V57.4182C58.6255 55.0406 57.3782 53.9493 55.6632 53.9493C54.3871 53.9493 53.7254 54.6359 53.3997 55.1392V54.1056H50.8272V61.8231H53.3997Z" fill="#005620"/>
</g>
<defs>
<clipPath id="clip0_1_3707">
<rect width="22" height="17" fill="white"/>
</clipPath>
<clipPath id="clip1_1_3707">
<rect width="21" height="21" fill="white" transform="translate(42)"/>
</clipPath>
<clipPath id="clip2_1_3707">
<rect width="20" height="24" fill="white" transform="translate(83)"/>
</clipPath>
<clipPath id="clip3_1_3707">
<rect width="18" height="21" fill="white" transform="translate(0 46)"/>
</clipPath>
<clipPath id="clip4_1_3707">
<rect width="21" height="21" fill="white" transform="translate(42 46)"/>
</clipPath>
</defs>
</svg>
